<?xml version="1.0" standalone="no"?>
<!DOCTYPE svg PUBLIC "-//W3C//DTD SVG 20010904//EN"
 "http://www.w3.org/TR/2001/REC-SVG-20010904/DTD/svg10.dtd">
<svg version="1.0" xmlns="http://www.w3.org/2000/svg"
 width="275.000000pt" height="275.000000pt" viewBox="0 0 275.000000 275.000000"
 preserveAspectRatio="xMidYMid meet">
<metadata>
Created by potrace 1.11, written by Peter Selinger 2001-2013
</metadata>
<g transform="translate(0.000000,275.000000) scale(0.100000,-0.100000)"
fill="#000000" stroke="none">
<path d="M298 2394 c-1 -36 -1 -67 2 -69 3 -2 40 -8 83 -14 108 -15 144 -32
165 -78 16 -35 17 -104 17 -833 0 -847 -1 -864 -48 -894 -12 -8 -62 -22 -112
-31 -49 -10 -94 -18 -100 -20 -6 -1 -9 -30 -7 -69 l4 -66 466 2 467 3 0 65 0
65 -83 13 c-46 7 -100 21 -121 32 -62 31 -66 59 -66 455 l0 340 430 0 430 0 0
-345 c-1 -371 -6 -417 -50 -446 -13 -8 -68 -23 -122 -33 l-98 -17 0 -65 0 -64
469 0 468 0 0 65 0 64 -96 17 c-54 10 -108 24 -121 33 -50 33 -50 33 -50 891
0 718 2 804 16 836 21 45 64 66 168 81 l81 11 0 69 0 68 -467 -2 -468 -3 0
-65 0 -65 75 -12 c111 -18 146 -30 164 -58 27 -40 35 -152 36 -452 l0 -283
-436 0 -436 0 4 333 c4 285 7 338 22 373 22 52 61 72 173 86 l84 11 -3 66 -3
66 -467 3 -466 2 -4 -66z"/>
</g>
</svg>
